<?xml version="1.0" standalone="no"?>
<!DOCTYPE svg PUBLIC "-//W3C//DTD SVG 20010904//EN"
 "http://www.w3.org/TR/2001/REC-SVG-20010904/DTD/svg10.dtd">
<svg version="1.0" xmlns="http://www.w3.org/2000/svg"
 width="300.000000pt" height="134.000000pt" viewBox="0 0 300.000000 134.000000"
 preserveAspectRatio="xMidYMid meet">
<metadata>
Created by potrace 1.10, written by Peter Selinger 2001-2011
</metadata>
<g transform="translate(0.000000,134.000000) scale(0.100000,-0.100000)"
fill="#000000" stroke="none">
<path d="M0 785 l0 -555 75 0 c61 0 81 4 104 21 25 18 33 19 67 10 21 -6 116
-11 209 -11 111 0 194 -5 240 -15 65 -14 76 -14 175 7 69 14 152 22 243 24
133 3 141 4 222 39 63 27 108 39 177 46 113 12 155 25 168 50 9 15 22 19 69
19 l59 0 -14 73 c-19 100 -18 144 4 151 146 43 581 37 797 -11 151 -33 205
-102 161 -206 -13 -32 -78 -97 -96 -97 -26 0 -5 -18 33 -29 23 -7 56 -25 72
-41 24 -22 49 -31 121 -44 51 -9 95 -16 98 -16 3 0 6 256 6 570 l0 570 -1495
0 -1495 0 0 -555z"/>
<path d="M2588 553 c-17 -4 -28 -44 -43 -145 -7 -47 -7 -48 20 -48 64 0 145
68 145 122 0 41 -36 78 -73 77 -18 -1 -40 -3 -49 -6z"/>
</g>
</svg>
